<?xml version="1.0" standalone="no"?>
<!DOCTYPE svg PUBLIC "-//W3C//DTD SVG 20010904//EN"
 "http://www.w3.org/TR/2001/REC-SVG-20010904/DTD/svg10.dtd">
<svg version="1.0" xmlns="http://www.w3.org/2000/svg"
 width="1536.000000pt" height="1536.000000pt" viewBox="0 0 1536.000000 1536.000000"
 preserveAspectRatio="xMidYMid meet">
<metadata>
Created by potrace 1.11, written by Peter Selinger 2001-2013
</metadata>
<g transform="translate(0.000000,1536.000000) scale(0.100000,-0.100000)"
fill="#000000" stroke="none">
<path d="M1958 12648 c-180 -62 -224 -302 -76 -417 67 -53 85 -55 513 -61
l400 -5 3 -3252 2 -3252 -352 -3 c-347 -3 -354 -3 -406 -27 -97 -44 -149 -133
-139 -241 10 -112 75 -185 193 -215 54 -14 173 -15 985 -13 1023 4 964 0 1045
71 64 56 78 88 78 177 1 64 -3 82 -27 122 -30 52 -65 80 -129 105 -36 15 -96
18 -391 23 l-347 5 0 1594 0 1594 47 51 c478 521 731 762 935 888 154 96 321
160 519 200 100 20 145 22 364 23 282 0 374 -11 574 -72 232 -69 382 -160 551
-332 200 -203 301 -408 340 -686 6 -43 10 -687 10 -1667 l0 -1598 -320 0
c-326 0 -392 -6 -460 -40 -110 -56 -153 -205 -92 -320 33 -64 87 -104 167
-125 89 -23 1831 -23 1920 0 108 29 164 83 185 182 25 115 -27 224 -128 271
l-57 27 -350 5 -350 5 -6 1660 c-5 1491 -7 1668 -22 1740 -74 361 -251 683
-521 950 -135 133 -261 224 -421 304 -276 138 -596 205 -985 204 -281 0 -493
-32 -731 -109 -347 -114 -665 -323 -1013 -666 -82 -81 -152 -148 -155 -148 -3
0 -5 691 -3 1535 l2 1535 -647 -1 c-621 -1 -650 -1 -705 -21z"/>
<path d="M8832 9693 c3 -617 4 -660 22 -698 28 -62 54 -94 100 -123 36 -24 51
-27 127 -27 78 0 90 3 134 30 60 37 100 106 114 195 6 36 11 222 11 423 l0
357 1556 0 c1015 0 1555 -3 1552 -10 -3 -10 -76 -94 -563 -644 -279 -315 -602
-681 -1909 -2161 -214 -242 -510 -577 -659 -745 -450 -509 -551 -624 -580
-658 l-27 -34 2 -216 3 -217 2295 0 2295 0 0 650 c0 614 -1 653 -19 699 -27
70 -77 121 -142 146 -69 25 -109 25 -178 -1 -67 -24 -115 -76 -141 -152 -17
-46 -19 -95 -23 -449 l-4 -398 -1689 0 c-929 0 -1689 3 -1689 8 0 4 64 79 141
167 249 282 1191 1346 1288 1455 116 131 565 637 726 820 66 74 293 331 505
570 212 239 421 475 465 525 169 192 394 446 507 572 l118 133 0 220 0 220
-2170 0 -2171 0 3 -657z"/>
</g>
</svg>
